<?xml version="1.0" encoding="utf-8" standalone="no"?>
<!DOCTYPE svg PUBLIC "-//W3C//DTD SVG 1.1//EN"
  "http://www.w3.org/Graphics/SVG/1.1/DTD/svg11.dtd">
<!-- Created with matplotlib (https://matplotlib.org/) -->
<svg height="966.518125pt" version="1.1" viewBox="0 0 594.373669 966.518125" width="594.373669pt" xmlns="http://www.w3.org/2000/svg" xmlns:xlink="http://www.w3.org/1999/xlink">
 <defs>
  <style type="text/css">
*{stroke-linecap:butt;stroke-linejoin:round;white-space:pre;}
  </style>
 </defs>
 <g id="figure_1">
  <g id="patch_1">
   <path d="M 0 966.518125 
L 594.373669 966.518125 
L 594.373669 0 
L 0 0 
z
" style="fill:#ffffff;"/>
  </g>
  <g id="axes_1">
   <g id="patch_2">
    <path d="M 189.876227 38.453772 
Q 183.459021 41.529154 178.050048 44.121351 
" style="fill:none;stroke:#000000;stroke-linecap:round;"/>
    <path d="M 182.521557 44.196235 
L 178.050048 44.121351 
L 180.792861 40.589074 
L 182.521557 44.196235 
z
" style="fill:#1f77b4;stroke:#000000;stroke-linecap:round;"/>
   </g>
   <g id="text_1">
    <g id="patch_3">
     <path d="M 174.544579 37.388855 
L 246.539891 37.388855 
L 246.539891 19.71073 
L 174.544579 19.71073 
z
" style="fill:#ffffff;stroke:#000000;stroke-linejoin:miter;stroke-width:0.4;"/>
    </g>
    <!-- True 54.97% -->
    <defs>
     <path d="M -0.296875 72.90625 
L 61.375 72.90625 
L 61.375 64.59375 
L 35.5 64.59375 
L 35.5 0 
L 25.59375 0 
L 25.59375 64.59375 
L -0.296875 64.59375 
z
" id="DejaVuSans-84"/>
     <path d="M 41.109375 46.296875 
Q 39.59375 47.171875 37.8125 47.578125 
Q 36.03125 48 33.890625 48 
Q 26.265625 48 22.1875 43.046875 
Q 18.109375 38.09375 18.109375 28.8125 
L 18.109375 0 
L 9.078125 0 
L 9.078125 54.6875 
L 18.109375 54.6875 
L 18.109375 46.1875 
Q 20.953125 51.171875 25.484375 53.578125 
Q 30.03125 56 36.53125 56 
Q 37.453125 56 38.578125 55.875 
Q 39.703125 55.765625 41.0625 55.515625 
z
" id="DejaVuSans-114"/>
     <path d="M 8.5 21.578125 
L 8.5 54.6875 
L 17.484375 54.6875 
L 17.484375 21.921875 
Q 17.484375 14.15625 20.5 10.265625 
Q 23.53125 6.390625 29.59375 6.390625 
Q 36.859375 6.390625 41.078125 11.03125 
Q 45.3125 15.671875 45.3125 23.6875 
L 45.3125 54.6875 
L 54.296875 54.6875 
L 54.296875 0 
L 45.3125 0 
L 45.3125 8.40625 
Q 42.046875 3.421875 37.71875 1 
Q 33.40625 -1.421875 27.6875 -1.421875 
Q 18.265625 -1.421875 13.375 4.4375 
Q 8.5 10.296875 8.5 21.578125 
z
M 31.109375 56 
z
" id="DejaVuSans-117"/>
     <path d="M 56.203125 29.59375 
L 56.203125 25.203125 
L 14.890625 25.203125 
Q 15.484375 15.921875 20.484375 11.0625 
Q 25.484375 6.203125 34.421875 6.203125 
Q 39.59375 6.203125 44.453125 7.46875 
Q 49.3125 8.734375 54.109375 11.28125 
L 54.109375 2.78125 
Q 49.265625 0.734375 44.1875 -0.34375 
Q 39.109375 -1.421875 33.890625 -1.421875 
Q 20.796875 -1.421875 13.15625 6.1875 
Q 5.515625 13.8125 5.515625 26.8125 
Q 5.515625 40.234375 12.765625 48.109375 
Q 20.015625 56 32.328125 56 
Q 43.359375 56 49.78125 48.890625 
Q 56.203125 41.796875 56.203125 29.59375 
z
M 47.21875 32.234375 
Q 47.125 39.59375 43.09375 43.984375 
Q 39.0625 48.390625 32.421875 48.390625 
Q 24.90625 48.390625 20.390625 44.140625 
Q 15.875 39.890625 15.1875 32.171875 
z
" id="DejaVuSans-101"/>
     <path id="DejaVuSans-32"/>
     <path d="M 10.796875 72.90625 
L 49.515625 72.90625 
L 49.515625 64.59375 
L 19.828125 64.59375 
L 19.828125 46.734375 
Q 21.96875 47.46875 24.109375 47.828125 
Q 26.265625 48.1875 28.421875 48.1875 
Q 40.625 48.1875 47.75 41.5 
Q 54.890625 34.8125 54.890625 23.390625 
Q 54.890625 11.625 47.5625 5.09375 
Q 40.234375 -1.421875 26.90625 -1.421875 
Q 22.3125 -1.421875 17.546875 -0.640625 
Q 12.796875 0.140625 7.71875 1.703125 
L 7.71875 11.625 
Q 12.109375 9.234375 16.796875 8.0625 
Q 21.484375 6.890625 26.703125 6.890625 
Q 35.15625 6.890625 40.078125 11.328125 
Q 45.015625 15.765625 45.015625 23.390625 
Q 45.015625 31 40.078125 35.4375 
Q 35.15625 39.890625 26.703125 39.890625 
Q 22.75 39.890625 18.8125 39.015625 
Q 14.890625 38.140625 10.796875 36.28125 
z
" id="DejaVuSans-53"/>
     <path d="M 37.796875 64.3125 
L 12.890625 25.390625 
L 37.796875 25.390625 
z
M 35.203125 72.90625 
L 47.609375 72.90625 
L 47.609375 25.390625 
L 58.015625 25.390625 
L 58.015625 17.1875 
L 47.609375 17.1875 
L 47.609375 0 
L 37.796875 0 
L 37.796875 17.1875 
L 4.890625 17.1875 
L 4.890625 26.703125 
z
" id="DejaVuSans-52"/>
     <path d="M 10.6875 12.40625 
L 21 12.40625 
L 21 0 
L 10.6875 0 
z
" id="DejaVuSans-46"/>
     <path d="M 10.984375 1.515625 
L 10.984375 10.5 
Q 14.703125 8.734375 18.5 7.8125 
Q 22.3125 6.890625 25.984375 6.890625 
Q 35.75 6.890625 40.890625 13.453125 
Q 46.046875 20.015625 46.78125 33.40625 
Q 43.953125 29.203125 39.59375 26.953125 
Q 35.25 24.703125 29.984375 24.703125 
Q 19.046875 24.703125 12.671875 31.3125 
Q 6.296875 37.9375 6.296875 49.421875 
Q 6.296875 60.640625 12.9375 67.421875 
Q 19.578125 74.21875 30.609375 74.21875 
Q 43.265625 74.21875 49.921875 64.515625 
Q 56.59375 54.828125 56.59375 36.375 
Q 56.59375 19.140625 48.40625 8.859375 
Q 40.234375 -1.421875 26.421875 -1.421875 
Q 22.703125 -1.421875 18.890625 -0.6875 
Q 15.09375 0.046875 10.984375 1.515625 
z
M 30.609375 32.421875 
Q 37.25 32.421875 41.125 36.953125 
Q 45.015625 41.5 45.015625 49.421875 
Q 45.015625 57.28125 41.125 61.84375 
Q 37.25 66.40625 30.609375 66.40625 
Q 23.96875 66.40625 20.09375 61.84375 
Q 16.21875 57.28125 16.21875 49.421875 
Q 16.21875 41.5 20.09375 36.953125 
Q 23.96875 32.421875 30.609375 32.421875 
z
" id="DejaVuSans-57"/>
     <path d="M 8.203125 72.90625 
L 55.078125 72.90625 
L 55.078125 68.703125 
L 28.609375 0 
L 18.3125 0 
L 43.21875 64.59375 
L 8.203125 64.59375 
z
" id="DejaVuSans-55"/>
     <path d="M 72.703125 32.078125 
Q 68.453125 32.078125 66.03125 28.46875 
Q 63.625 24.859375 63.625 18.40625 
Q 63.625 12.0625 66.03125 8.421875 
Q 68.453125 4.78125 72.703125 4.78125 
Q 76.859375 4.78125 79.265625 8.421875 
Q 81.6875 12.0625 81.6875 18.40625 
Q 81.6875 24.8125 79.265625 28.4375 
Q 76.859375 32.078125 72.703125 32.078125 
z
M 72.703125 38.28125 
Q 80.421875 38.28125 84.953125 32.90625 
Q 89.5 27.546875 89.5 18.40625 
Q 89.5 9.28125 84.9375 3.921875 
Q 80.375 -1.421875 72.703125 -1.421875 
Q 64.890625 -1.421875 60.34375 3.921875 
Q 55.8125 9.28125 55.8125 18.40625 
Q 55.8125 27.59375 60.375 32.9375 
Q 64.9375 38.28125 72.703125 38.28125 
z
M 22.3125 68.015625 
Q 18.109375 68.015625 15.6875 64.375 
Q 13.28125 60.75 13.28125 54.390625 
Q 13.28125 47.953125 15.671875 44.328125 
Q 18.0625 40.71875 22.3125 40.71875 
Q 26.5625 40.71875 28.96875 44.328125 
Q 31.390625 47.953125 31.390625 54.390625 
Q 31.390625 60.6875 28.953125 64.34375 
Q 26.515625 68.015625 22.3125 68.015625 
z
M 66.40625 74.21875 
L 74.21875 74.21875 
L 28.609375 -1.421875 
L 20.796875 -1.421875 
z
M 22.3125 74.21875 
Q 30.03125 74.21875 34.609375 68.875 
Q 39.203125 63.53125 39.203125 54.390625 
Q 39.203125 45.171875 34.640625 39.84375 
Q 30.078125 34.515625 22.3125 34.515625 
Q 14.546875 34.515625 10.03125 39.859375 
Q 5.515625 45.21875 5.515625 54.390625 
Q 5.515625 63.484375 10.046875 68.84375 
Q 14.59375 74.21875 22.3125 74.21875 
z
" id="DejaVuSans-37"/>
    </defs>
    <g transform="translate(178.544579 31.309167)scale(0.1 -0.1)">
     <use xlink:href="#DejaVuSans-84"/>
     <use x="60.865234" xlink:href="#DejaVuSans-114"/>
     <use x="101.978516" xlink:href="#DejaVuSans-117"/>
     <use x="165.357422" xlink:href="#DejaVuSans-101"/>
     <use x="226.880859" xlink:href="#DejaVuSans-32"/>
     <use x="258.667969" xlink:href="#DejaVuSans-53"/>
     <use x="322.291016" xlink:href="#DejaVuSans-52"/>
     <use x="385.914062" xlink:href="#DejaVuSans-46"/>
     <use x="417.701172" xlink:href="#DejaVuSans-57"/>
     <use x="481.324219" xlink:href="#DejaVuSans-55"/>
     <use x="544.947266" xlink:href="#DejaVuSans-37"/>
    </g>
   </g>
   <g id="patch_4">
    <path d="M 126.765731 221.713257 
Q 133.555369 218.605459 139.328409 215.962985 
" style="fill:none;stroke:#000000;stroke-linecap:round;"/>
    <path d="M 134.858916 215.809233 
L 139.328409 215.962985 
L 136.523712 219.446328 
L 134.858916 215.809233 
z
" style="fill:#1f77b4;stroke:#000000;stroke-linecap:round;"/>
   </g>
   <g id="text_2">
    <g id="patch_5">
     <path d="M 67.538618 240.42552 
L 142.85268 240.42552 
L 142.85268 222.747395 
L 67.538618 222.747395 
z
" style="fill:#ffffff;stroke:#000000;stroke-linejoin:miter;stroke-width:0.4;"/>
    </g>
    <!-- False 45.03% -->
    <defs>
     <path d="M 9.8125 72.90625 
L 51.703125 72.90625 
L 51.703125 64.59375 
L 19.671875 64.59375 
L 19.671875 43.109375 
L 48.578125 43.109375 
L 48.578125 34.8125 
L 19.671875 34.8125 
L 19.671875 0 
L 9.8125 0 
z
" id="DejaVuSans-70"/>
     <path d="M 34.28125 27.484375 
Q 23.390625 27.484375 19.1875 25 
Q 14.984375 22.515625 14.984375 16.5 
Q 14.984375 11.71875 18.140625 8.90625 
Q 21.296875 6.109375 26.703125 6.109375 
Q 34.1875 6.109375 38.703125 11.40625 
Q 43.21875 16.703125 43.21875 25.484375 
L 43.21875 27.484375 
z
M 52.203125 31.203125 
L 52.203125 0 
L 43.21875 0 
L 43.21875 8.296875 
Q 40.140625 3.328125 35.546875 0.953125 
Q 30.953125 -1.421875 24.3125 -1.421875 
Q 15.921875 -1.421875 10.953125 3.296875 
Q 6 8.015625 6 15.921875 
Q 6 25.140625 12.171875 29.828125 
Q 18.359375 34.515625 30.609375 34.515625 
L 43.21875 34.515625 
L 43.21875 35.40625 
Q 43.21875 41.609375 39.140625 45 
Q 35.0625 48.390625 27.6875 48.390625 
Q 23 48.390625 18.546875 47.265625 
Q 14.109375 46.140625 10.015625 43.890625 
L 10.015625 52.203125 
Q 14.9375 54.109375 19.578125 55.046875 
Q 24.21875 56 28.609375 56 
Q 40.484375 56 46.34375 49.84375 
Q 52.203125 43.703125 52.203125 31.203125 
z
" id="DejaVuSans-97"/>
     <path d="M 9.421875 75.984375 
L 18.40625 75.984375 
L 18.40625 0 
L 9.421875 0 
z
" id="DejaVuSans-108"/>
     <path d="M 44.28125 53.078125 
L 44.28125 44.578125 
Q 40.484375 46.53125 36.375 47.5 
Q 32.28125 48.484375 27.875 48.484375 
Q 21.1875 48.484375 17.84375 46.4375 
Q 14.5 44.390625 14.5 40.28125 
Q 14.5 37.15625 16.890625 35.375 
Q 19.28125 33.59375 26.515625 31.984375 
L 29.59375 31.296875 
Q 39.15625 29.25 43.1875 25.515625 
Q 47.21875 21.78125 47.21875 15.09375 
Q 47.21875 7.46875 41.1875 3.015625 
Q 35.15625 -1.421875 24.609375 -1.421875 
Q 20.21875 -1.421875 15.453125 -0.5625 
Q 10.6875 0.296875 5.421875 2 
L 5.421875 11.28125 
Q 10.40625 8.6875 15.234375 7.390625 
Q 20.0625 6.109375 24.8125 6.109375 
Q 31.15625 6.109375 34.5625 8.28125 
Q 37.984375 10.453125 37.984375 14.40625 
Q 37.984375 18.0625 35.515625 20.015625 
Q 33.0625 21.96875 24.703125 23.78125 
L 21.578125 24.515625 
Q 13.234375 26.265625 9.515625 29.90625 
Q 5.8125 33.546875 5.8125 39.890625 
Q 5.8125 47.609375 11.28125 51.796875 
Q 16.75 56 26.8125 56 
Q 31.78125 56 36.171875 55.265625 
Q 40.578125 54.546875 44.28125 53.078125 
z
" id="DejaVuSans-115"/>
     <path d="M 31.78125 66.40625 
Q 24.171875 66.40625 20.328125 58.90625 
Q 16.5 51.421875 16.5 36.375 
Q 16.5 21.390625 20.328125 13.890625 
Q 24.171875 6.390625 31.78125 6.390625 
Q 39.453125 6.390625 43.28125 13.890625 
Q 47.125 21.390625 47.125 36.375 
Q 47.125 51.421875 43.28125 58.90625 
Q 39.453125 66.40625 31.78125 66.40625 
z
M 31.78125 74.21875 
Q 44.046875 74.21875 50.515625 64.515625 
Q 56.984375 54.828125 56.984375 36.375 
Q 56.984375 17.96875 50.515625 8.265625 
Q 44.046875 -1.421875 31.78125 -1.421875 
Q 19.53125 -1.421875 13.0625 8.265625 
Q 6.59375 17.96875 6.59375 36.375 
Q 6.59375 54.828125 13.0625 64.515625 
Q 19.53125 74.21875 31.78125 74.21875 
z
" id="DejaVuSans-48"/>
     <path d="M 40.578125 39.3125 
Q 47.65625 37.796875 51.625 33 
Q 55.609375 28.21875 55.609375 21.1875 
Q 55.609375 10.40625 48.1875 4.484375 
Q 40.765625 -1.421875 27.09375 -1.421875 
Q 22.515625 -1.421875 17.65625 -0.515625 
Q 12.796875 0.390625 7.625 2.203125 
L 7.625 11.71875 
Q 11.71875 9.328125 16.59375 8.109375 
Q 21.484375 6.890625 26.8125 6.890625 
Q 36.078125 6.890625 40.9375 10.546875 
Q 45.796875 14.203125 45.796875 21.1875 
Q 45.796875 27.640625 41.28125 31.265625 
Q 36.765625 34.90625 28.71875 34.90625 
L 20.21875 34.90625 
L 20.21875 43.015625 
L 29.109375 43.015625 
Q 36.375 43.015625 40.234375 45.921875 
Q 44.09375 48.828125 44.09375 54.296875 
Q 44.09375 59.90625 40.109375 62.90625 
Q 36.140625 65.921875 28.71875 65.921875 
Q 24.65625 65.921875 20.015625 65.03125 
Q 15.375 64.15625 9.8125 62.3125 
L 9.8125 71.09375 
Q 15.4375 72.65625 20.34375 73.4375 
Q 25.25 74.21875 29.59375 74.21875 
Q 40.828125 74.21875 47.359375 69.109375 
Q 53.90625 64.015625 53.90625 55.328125 
Q 53.90625 49.265625 50.4375 45.09375 
Q 46.96875 40.921875 40.578125 39.3125 
z
" id="DejaVuSans-51"/>
    </defs>
    <g transform="translate(71.538618 234.345833)scale(0.1 -0.1)">
     <use xlink:href="#DejaVuSans-70"/>
     <use x="57.378906" xlink:href="#DejaVuSans-97"/>
     <use x="118.658203" xlink:href="#DejaVuSans-108"/>
     <use x="146.441406" xlink:href="#DejaVuSans-115"/>
     <use x="198.541016" xlink:href="#DejaVuSans-101"/>
     <use x="260.064453" xlink:href="#DejaVuSans-32"/>
     <use x="291.851562" xlink:href="#DejaVuSans-52"/>
     <use x="355.474609" xlink:href="#DejaVuSans-53"/>
     <use x="419.097656" xlink:href="#DejaVuSans-46"/>
     <use x="450.884766" xlink:href="#DejaVuSans-48"/>
     <use x="514.507812" xlink:href="#DejaVuSans-51"/>
     <use x="578.130859" xlink:href="#DejaVuSans-37"/>
    </g>
   </g>
   <g id="patch_6">
    <path d="M 239.700133 159.550261 
C 243.95903 147.849039 245.632305 135.362733 244.604483 122.953044 
C 243.576661 110.543355 239.871942 98.502476 233.745995 87.66137 
C 227.620049 76.820264 219.217114 67.43419 209.117091 60.150898 
C 199.017069 52.867605 187.45777 47.858584 175.236921 45.469514 
C 163.016072 43.080445 150.42142 43.367579 138.322144 46.311102 
C 126.222868 49.254625 114.903853 54.78523 105.146242 62.521239 
C 95.388632 70.257248 87.422175 80.016514 81.79665 91.125531 
C 76.171126 102.234549 73.01899 114.431751 72.557777 126.875387 
L 158.69863 130.068125 
L 239.700133 159.550261 
z
" style="fill:#1f77b4;"/>
   </g>
   <g id="patch_7">
    <path d="M 72.557777 126.875387 
C 71.79718 147.3965 78.394097 167.528992 91.151743 183.620512 
C 103.90939 199.712032 122.00663 210.726861 142.160338 214.666736 
C 162.314046 218.60661 183.227045 215.217942 201.105385 205.115491 
C 218.983724 195.013039 232.67668 178.84704 239.700133 159.550261 
L 158.69863 130.068125 
L 72.557777 126.875387 
z
" style="fill:#ff7f0e;"/>
   </g>
   <g id="matplotlib.axis_1"/>
   <g id="matplotlib.axis_2"/>
   <g id="text_3">
    <!-- feature_1 -->
    <defs>
     <path d="M 37.109375 75.984375 
L 37.109375 68.5 
L 28.515625 68.5 
Q 23.6875 68.5 21.796875 66.546875 
Q 19.921875 64.59375 19.921875 59.515625 
L 19.921875 54.6875 
L 34.71875 54.6875 
L 34.71875 47.703125 
L 19.921875 47.703125 
L 19.921875 0 
L 10.890625 0 
L 10.890625 47.703125 
L 2.296875 47.703125 
L 2.296875 54.6875 
L 10.890625 54.6875 
L 10.890625 58.5 
Q 10.890625 67.625 15.140625 71.796875 
Q 19.390625 75.984375 28.609375 75.984375 
z
" id="DejaVuSans-102"/>
     <path d="M 18.3125 70.21875 
L 18.3125 54.6875 
L 36.8125 54.6875 
L 36.8125 47.703125 
L 18.3125 47.703125 
L 18.3125 18.015625 
Q 18.3125 11.328125 20.140625 9.421875 
Q 21.96875 7.515625 27.59375 7.515625 
L 36.8125 7.515625 
L 36.8125 0 
L 27.59375 0 
Q 17.1875 0 13.234375 3.875 
Q 9.28125 7.765625 9.28125 18.015625 
L 9.28125 47.703125 
L 2.6875 47.703125 
L 2.6875 54.6875 
L 9.28125 54.6875 
L 9.28125 70.21875 
z
" id="DejaVuSans-116"/>
     <path d="M 50.984375 -16.609375 
L 50.984375 -23.578125 
L -0.984375 -23.578125 
L -0.984375 -16.609375 
z
" id="DejaVuSans-95"/>
     <path d="M 12.40625 8.296875 
L 28.515625 8.296875 
L 28.515625 63.921875 
L 10.984375 60.40625 
L 10.984375 69.390625 
L 28.421875 72.90625 
L 38.28125 72.90625 
L 38.28125 8.296875 
L 54.390625 8.296875 
L 54.390625 0 
L 12.40625 0 
z
" id="DejaVuSans-49"/>
    </defs>
    <g transform="translate(130.088942 16.318125)scale(0.12 -0.12)">
     <use xlink:href="#DejaVuSans-102"/>
     <use x="35.205078" xlink:href="#DejaVuSans-101"/>
     <use x="96.728516" xlink:href="#DejaVuSans-97"/>
     <use x="158.007812" xlink:href="#DejaVuSans-116"/>
     <use x="197.216797" xlink:href="#DejaVuSans-117"/>
     <use x="260.595703" xlink:href="#DejaVuSans-114"/>
     <use x="301.677734" xlink:href="#DejaVuSans-101"/>
     <use x="363.201172" xlink:href="#DejaVuSans-95"/>
     <use x="413.201172" xlink:href="#DejaVuSans-49"/>
    </g>
   </g>
  </g>
  <g id="axes_2">
   <g id="patch_8">
    <path d="M 368.047822 52.710357 
Q 373.945967 54.782219 378.789265 56.483541 
" style="fill:none;stroke:#000000;stroke-linecap:round;"/>
    <path d="M 375.678173 53.270892 
L 378.789265 56.483541 
L 374.352491 57.044825 
L 375.678173 53.270892 
z
" style="fill:#1f77b4;stroke:#000000;stroke-linecap:round;"/>
   </g>
   <g id="text_4">
    <g id="patch_9">
     <path d="M 304.426575 51.845985 
L 376.421888 51.845985 
L 376.421888 34.16786 
L 304.426575 34.16786 
z
" style="fill:#ffffff;stroke:#000000;stroke-linejoin:miter;stroke-width:0.4;"/>
    </g>
    <!-- True 79.27% -->
    <defs>
     <path d="M 19.1875 8.296875 
L 53.609375 8.296875 
L 53.609375 0 
L 7.328125 0 
L 7.328125 8.296875 
Q 12.9375 14.109375 22.625 23.890625 
Q 32.328125 33.6875 34.8125 36.53125 
Q 39.546875 41.84375 41.421875 45.53125 
Q 43.3125 49.21875 43.3125 52.78125 
Q 43.3125 58.59375 39.234375 62.25 
Q 35.15625 65.921875 28.609375 65.921875 
Q 23.96875 65.921875 18.8125 64.3125 
Q 13.671875 62.703125 7.8125 59.421875 
L 7.8125 69.390625 
Q 13.765625 71.78125 18.9375 73 
Q 24.125 74.21875 28.421875 74.21875 
Q 39.75 74.21875 46.484375 68.546875 
Q 53.21875 62.890625 53.21875 53.421875 
Q 53.21875 48.921875 51.53125 44.890625 
Q 49.859375 40.875 45.40625 35.40625 
Q 44.1875 33.984375 37.640625 27.21875 
Q 31.109375 20.453125 19.1875 8.296875 
z
" id="DejaVuSans-50"/>
    </defs>
    <g transform="translate(308.426575 45.766298)scale(0.1 -0.1)">
     <use xlink:href="#DejaVuSans-84"/>
     <use x="60.865234" xlink:href="#DejaVuSans-114"/>
     <use x="101.978516" xlink:href="#DejaVuSans-117"/>
     <use x="165.357422" xlink:href="#DejaVuSans-101"/>
     <use x="226.880859" xlink:href="#DejaVuSans-32"/>
     <use x="258.667969" xlink:href="#DejaVuSans-55"/>
     <use x="322.291016" xlink:href="#DejaVuSans-57"/>
     <use x="385.914062" xlink:href="#DejaVuSans-46"/>
     <use x="417.701172" xlink:href="#DejaVuSans-50"/>
     <use x="481.324219" xlink:href="#DejaVuSans-55"/>
     <use x="544.947266" xlink:href="#DejaVuSans-37"/>
    </g>
   </g>
   <g id="patch_10">
    <path d="M 489.133986 207.449938 
Q 482.929806 205.354741 477.784887 203.617264 
" style="fill:none;stroke:#000000;stroke-linecap:round;"/>
    <path d="M 480.934708 206.791949 
L 477.784887 203.617264 
L 482.214528 203.002218 
L 480.934708 206.791949 
z
" style="fill:#1f77b4;stroke:#000000;stroke-linecap:round;"/>
   </g>
   <g id="text_5">
    <g id="patch_11">
     <path d="M 480.139034 225.968395 
L 555.453097 225.968395 
L 555.453097 208.29027 
L 480.139034 208.29027 
z
" style="fill:#ffffff;stroke:#000000;stroke-linejoin:miter;stroke-width:0.4;"/>
    </g>
    <!-- False 20.73% -->
    <g transform="translate(484.139034 219.888707)scale(0.1 -0.1)">
     <use xlink:href="#DejaVuSans-70"/>
     <use x="57.378906" xlink:href="#DejaVuSans-97"/>
     <use x="118.658203" xlink:href="#DejaVuSans-108"/>
     <use x="146.441406" xlink:href="#DejaVuSans-115"/>
     <use x="198.541016" xlink:href="#DejaVuSans-101"/>
     <use x="260.064453" xlink:href="#DejaVuSans-32"/>
     <use x="291.851562" xlink:href="#DejaVuSans-50"/>
     <use x="355.474609" xlink:href="#DejaVuSans-48"/>
     <use x="419.097656" xlink:href="#DejaVuSans-46"/>
     <use x="450.884766" xlink:href="#DejaVuSans-55"/>
     <use x="514.507812" xlink:href="#DejaVuSans-51"/>
     <use x="578.130859" xlink:href="#DejaVuSans-37"/>
    </g>
   </g>
   <g id="patch_12">
    <path d="M 509.281969 159.550261 
C 512.347285 151.128376 514.080473 142.27972 514.418964 133.323731 
C 514.757456 124.367742 513.697129 115.413505 511.276261 106.784269 
C 508.855393 98.155034 505.10347 89.955904 500.155937 82.48287 
C 495.208405 75.009836 489.125524 68.35392 482.126888 62.755402 
C 475.128252 57.156883 467.299105 52.683953 458.92208 49.498084 
C 450.545054 46.312215 441.722184 44.452212 432.771975 43.985221 
C 423.821767 43.51823 414.853234 44.449939 406.190144 46.746713 
C 397.527053 49.043487 389.274921 52.677352 381.731651 57.517123 
C 374.188381 62.356895 367.44585 68.343625 361.747466 75.261191 
C 356.049081 82.178758 351.464249 89.942905 348.158484 98.273344 
C 344.852718 106.603784 342.866283 115.399052 342.270888 124.341636 
C 341.675494 133.28422 342.478393 142.265201 344.6506 150.960362 
C 346.822807 159.655523 350.337864 167.958958 355.068878 175.570911 
C 359.799892 183.182863 365.689238 190.010619 372.52431 195.807696 
C 379.359383 201.604773 387.056929 206.300562 395.339067 209.725543 
C 403.621205 213.150525 412.387058 215.262984 421.320177 215.986658 
L 428.280465 130.068125 
L 509.281969 159.550261 
z
" style="fill:#1f77b4;"/>
   </g>
   <g id="patch_13">
    <path d="M 421.320177 215.986658 
C 440.135792 217.510918 458.941062 212.813025 474.829273 202.619131 
C 490.717484 192.425237 502.825559 177.289092 509.281964 159.550277 
L 428.280465 130.068125 
L 421.320177 215.986658 
z
" style="fill:#ff7f0e;"/>
   </g>
   <g id="matplotlib.axis_3"/>
   <g id="matplotlib.axis_4"/>
   <g id="text_6">
    <!-- feature_2 -->
    <g transform="translate(399.670778 16.318125)scale(0.12 -0.12)">
     <use xlink:href="#DejaVuSans-102"/>
     <use x="35.205078" xlink:href="#DejaVuSans-101"/>
     <use x="96.728516" xlink:href="#DejaVuSans-97"/>
     <use x="158.007812" xlink:href="#DejaVuSans-116"/>
     <use x="197.216797" xlink:href="#DejaVuSans-117"/>
     <use x="260.595703" xlink:href="#DejaVuSans-114"/>
     <use x="301.677734" xlink:href="#DejaVuSans-101"/>
     <use x="363.201172" xlink:href="#DejaVuSans-95"/>
     <use x="413.201172" xlink:href="#DejaVuSans-50"/>
    </g>
   </g>
  </g>
  <g id="axes_3">
   <g id="patch_14">
    <path d="M 96.839189 294.131653 
Q 102.938071 296.157237 107.975909 297.830422 
" style="fill:none;stroke:#000000;stroke-linecap:round;"/>
    <path d="M 104.810189 294.67159 
L 107.975909 297.830422 
L 103.549411 298.467698 
L 104.810189 294.67159 
z
" style="fill:#1f77b4;stroke:#000000;stroke-linecap:round;"/>
   </g>
   <g id="text_7">
    <g id="patch_15">
     <path d="M 30.065636 293.30043 
L 105.379699 293.30043 
L 105.379699 275.622305 
L 30.065636 275.622305 
z
" style="fill:#ffffff;stroke:#000000;stroke-linejoin:miter;stroke-width:0.4;"/>
    </g>
    <!-- False 79.81% -->
    <defs>
     <path d="M 31.78125 34.625 
Q 24.75 34.625 20.71875 30.859375 
Q 16.703125 27.09375 16.703125 20.515625 
Q 16.703125 13.921875 20.71875 10.15625 
Q 24.75 6.390625 31.78125 6.390625 
Q 38.8125 6.390625 42.859375 10.171875 
Q 46.921875 13.96875 46.921875 20.515625 
Q 46.921875 27.09375 42.890625 30.859375 
Q 38.875 34.625 31.78125 34.625 
z
M 21.921875 38.8125 
Q 15.578125 40.375 12.03125 44.71875 
Q 8.5 49.078125 8.5 55.328125 
Q 8.5 64.0625 14.71875 69.140625 
Q 20.953125 74.21875 31.78125 74.21875 
Q 42.671875 74.21875 48.875 69.140625 
Q 55.078125 64.0625 55.078125 55.328125 
Q 55.078125 49.078125 51.53125 44.71875 
Q 48 40.375 41.703125 38.8125 
Q 48.828125 37.15625 52.796875 32.3125 
Q 56.78125 27.484375 56.78125 20.515625 
Q 56.78125 9.90625 50.3125 4.234375 
Q 43.84375 -1.421875 31.78125 -1.421875 
Q 19.734375 -1.421875 13.25 4.234375 
Q 6.78125 9.90625 6.78125 20.515625 
Q 6.78125 27.484375 10.78125 32.3125 
Q 14.796875 37.15625 21.921875 38.8125 
z
M 18.3125 54.390625 
Q 18.3125 48.734375 21.84375 45.5625 
Q 25.390625 42.390625 31.78125 42.390625 
Q 38.140625 42.390625 41.71875 45.5625 
Q 45.3125 48.734375 45.3125 54.390625 
Q 45.3125 60.0625 41.71875 63.234375 
Q 38.140625 66.40625 31.78125 66.40625 
Q 25.390625 66.40625 21.84375 63.234375 
Q 18.3125 60.0625 18.3125 54.390625 
z
" id="DejaVuSans-56"/>
    </defs>
    <g transform="translate(34.065636 287.220742)scale(0.1 -0.1)">
     <use xlink:href="#DejaVuSans-70"/>
     <use x="57.378906" xlink:href="#DejaVuSans-97"/>
     <use x="118.658203" xlink:href="#DejaVuSans-108"/>
     <use x="146.441406" xlink:href="#DejaVuSans-115"/>
     <use x="198.541016" xlink:href="#DejaVuSans-101"/>
     <use x="260.064453" xlink:href="#DejaVuSans-32"/>
     <use x="291.851562" xlink:href="#DejaVuSans-55"/>
     <use x="355.474609" xlink:href="#DejaVuSans-57"/>
     <use x="419.097656" xlink:href="#DejaVuSans-46"/>
     <use x="450.884766" xlink:href="#DejaVuSans-56"/>
     <use x="514.507812" xlink:href="#DejaVuSans-49"/>
     <use x="578.130859" xlink:href="#DejaVuSans-37"/>
    </g>
   </g>
   <g id="patch_16">
    <path d="M 219.956753 446.983847 
Q 214.154317 444.979759 209.408658 443.340668 
" style="fill:none;stroke:#000000;stroke-linecap:round;"/>
    <path d="M 212.53657 446.536942 
L 209.408658 443.340668 
L 213.842425 442.756103 
L 212.53657 446.536942 
z
" style="fill:#1f77b4;stroke:#000000;stroke-linecap:round;"/>
   </g>
   <g id="text_8">
    <g id="patch_17">
     <path d="M 212.017556 465.513948 
L 284.012869 465.513948 
L 284.012869 447.835823 
L 212.017556 447.835823 
z
" style="fill:#ffffff;stroke:#000000;stroke-linejoin:miter;stroke-width:0.4;"/>
    </g>
    <!-- True 20.19% -->
    <g transform="translate(216.017556 459.434261)scale(0.1 -0.1)">
     <use xlink:href="#DejaVuSans-84"/>
     <use x="60.865234" xlink:href="#DejaVuSans-114"/>
     <use x="101.978516" xlink:href="#DejaVuSans-117"/>
     <use x="165.357422" xlink:href="#DejaVuSans-101"/>
     <use x="226.880859" xlink:href="#DejaVuSans-32"/>
     <use x="258.667969" xlink:href="#DejaVuSans-50"/>
     <use x="322.291016" xlink:href="#DejaVuSans-48"/>
     <use x="385.914062" xlink:href="#DejaVuSans-46"/>
     <use x="417.701172" xlink:href="#DejaVuSans-49"/>
     <use x="481.324219" xlink:href="#DejaVuSans-57"/>
     <use x="544.947266" xlink:href="#DejaVuSans-37"/>
    </g>
   </g>
   <g id="patch_18">
    <path d="M 239.700133 400.050261 
C 242.786293 391.571107 244.522018 382.659712 244.843801 373.642123 
C 245.165584 364.624535 244.069452 355.612088 241.595512 346.934527 
C 239.121571 338.256966 235.300365 330.021428 230.271703 322.529232 
C 225.24304 315.037036 219.069008 308.380684 211.975499 302.803716 
C 204.88199 297.226747 196.956584 292.798019 188.489252 289.679567 
C 180.021921 286.561115 171.117205 284.791442 162.100909 284.435294 
C 153.084612 284.079147 144.068053 285.140924 135.381127 287.581776 
C 126.694201 290.022629 118.44416 293.812421 110.932854 298.812493 
C 103.421548 303.812566 96.741714 309.961186 91.137753 317.033389 
C 85.533791 324.105593 81.074891 332.014063 77.924192 340.469449 
C 74.773494 348.924834 72.969897 357.822741 72.579391 366.837615 
C 72.188885 375.852489 73.216291 384.873028 75.624019 393.569193 
C 78.031748 402.265359 81.790071 410.529783 86.761481 418.06009 
C 91.732892 425.590397 97.85601 432.293615 104.906805 437.924488 
C 111.9576 443.555361 119.84902 448.044369 128.292337 451.227268 
C 136.735654 454.410168 145.626622 456.247662 154.639942 456.672521 
L 158.69863 370.568125 
L 239.700133 400.050261 
z
" style="fill:#1f77b4;"/>
   </g>
   <g id="patch_19">
    <path d="M 154.639942 456.672521 
C 172.999883 457.537951 191.164031 452.508799 206.464402 442.323759 
C 221.764773 432.138718 233.413687 417.322126 239.700131 400.050269 
L 158.69863 370.568125 
L 154.639942 456.672521 
z
" style="fill:#ff7f0e;"/>
   </g>
   <g id="matplotlib.axis_5"/>
   <g id="matplotlib.axis_6"/>
   <g id="text_9">
    <!-- feature_3 -->
    <g transform="translate(130.088942 256.818125)scale(0.12 -0.12)">
     <use xlink:href="#DejaVuSans-102"/>
     <use x="35.205078" xlink:href="#DejaVuSans-101"/>
     <use x="96.728516" xlink:href="#DejaVuSans-97"/>
     <use x="158.007812" xlink:href="#DejaVuSans-116"/>
     <use x="197.216797" xlink:href="#DejaVuSans-117"/>
     <use x="260.595703" xlink:href="#DejaVuSans-114"/>
     <use x="301.677734" xlink:href="#DejaVuSans-101"/>
     <use x="363.201172" xlink:href="#DejaVuSans-95"/>
     <use x="413.201172" xlink:href="#DejaVuSans-51"/>
    </g>
   </g>
  </g>
  <g id="axes_4">
   <g id="patch_20">
    <path d="M 365.813813 294.724138 
Q 371.844069 296.706175 376.812192 298.339108 
" style="fill:none;stroke:#000000;stroke-linecap:round;"/>
    <path d="M 373.636686 295.190115 
L 376.812192 298.339108 
L 372.387693 298.990117 
L 373.636686 295.190115 
z
" style="fill:#1f77b4;stroke:#000000;stroke-linecap:round;"/>
   </g>
   <g id="text_10">
    <g id="patch_21">
     <path d="M 298.756866 293.899975 
L 374.070928 293.899975 
L 374.070928 276.22185 
L 298.756866 276.22185 
z
" style="fill:#ffffff;stroke:#000000;stroke-linejoin:miter;stroke-width:0.4;"/>
    </g>
    <!-- False 80.14% -->
    <g transform="translate(302.756866 287.820287)scale(0.1 -0.1)">
     <use xlink:href="#DejaVuSans-70"/>
     <use x="57.378906" xlink:href="#DejaVuSans-97"/>
     <use x="118.658203" xlink:href="#DejaVuSans-108"/>
     <use x="146.441406" xlink:href="#DejaVuSans-115"/>
     <use x="198.541016" xlink:href="#DejaVuSans-101"/>
     <use x="260.064453" xlink:href="#DejaVuSans-32"/>
     <use x="291.851562" xlink:href="#DejaVuSans-56"/>
     <use x="355.474609" xlink:href="#DejaVuSans-48"/>
     <use x="419.097656" xlink:href="#DejaVuSans-46"/>
     <use x="450.884766" xlink:href="#DejaVuSans-49"/>
     <use x="514.507812" xlink:href="#DejaVuSans-52"/>
     <use x="578.130859" xlink:href="#DejaVuSans-37"/>
    </g>
   </g>
   <g id="patch_22">
    <path d="M 490.145879 446.389201 
Q 484.414497 444.430435 479.74107 442.833237 
" style="fill:none;stroke:#000000;stroke-linecap:round;"/>
    <path d="M 482.879331 446.01935 
L 479.74107 442.833237 
L 484.172917 442.234296 
L 482.879331 446.01935 
z
" style="fill:#1f77b4;stroke:#000000;stroke-linecap:round;"/>
   </g>
   <g id="text_11">
    <g id="patch_23">
     <path d="M 482.490006 464.914397 
L 554.485319 464.914397 
L 554.485319 447.236272 
L 482.490006 447.236272 
z
" style="fill:#ffffff;stroke:#000000;stroke-linejoin:miter;stroke-width:0.4;"/>
    </g>
    <!-- True 19.86% -->
    <defs>
     <path d="M 33.015625 40.375 
Q 26.375 40.375 22.484375 35.828125 
Q 18.609375 31.296875 18.609375 23.390625 
Q 18.609375 15.53125 22.484375 10.953125 
Q 26.375 6.390625 33.015625 6.390625 
Q 39.65625 6.390625 43.53125 10.953125 
Q 47.40625 15.53125 47.40625 23.390625 
Q 47.40625 31.296875 43.53125 35.828125 
Q 39.65625 40.375 33.015625 40.375 
z
M 52.59375 71.296875 
L 52.59375 62.3125 
Q 48.875 64.0625 45.09375 64.984375 
Q 41.3125 65.921875 37.59375 65.921875 
Q 27.828125 65.921875 22.671875 59.328125 
Q 17.53125 52.734375 16.796875 39.40625 
Q 19.671875 43.65625 24.015625 45.921875 
Q 28.375 48.1875 33.59375 48.1875 
Q 44.578125 48.1875 50.953125 41.515625 
Q 57.328125 34.859375 57.328125 23.390625 
Q 57.328125 12.15625 50.6875 5.359375 
Q 44.046875 -1.421875 33.015625 -1.421875 
Q 20.359375 -1.421875 13.671875 8.265625 
Q 6.984375 17.96875 6.984375 36.375 
Q 6.984375 53.65625 15.1875 63.9375 
Q 23.390625 74.21875 37.203125 74.21875 
Q 40.921875 74.21875 44.703125 73.484375 
Q 48.484375 72.75 52.59375 71.296875 
z
" id="DejaVuSans-54"/>
    </defs>
    <g transform="translate(486.490006 458.83471)scale(0.1 -0.1)">
     <use xlink:href="#DejaVuSans-84"/>
     <use x="60.865234" xlink:href="#DejaVuSans-114"/>
     <use x="101.978516" xlink:href="#DejaVuSans-117"/>
     <use x="165.357422" xlink:href="#DejaVuSans-101"/>
     <use x="226.880859" xlink:href="#DejaVuSans-32"/>
     <use x="258.667969" xlink:href="#DejaVuSans-49"/>
     <use x="322.291016" xlink:href="#DejaVuSans-57"/>
     <use x="385.914062" xlink:href="#DejaVuSans-46"/>
     <use x="417.701172" xlink:href="#DejaVuSans-56"/>
     <use x="481.324219" xlink:href="#DejaVuSans-54"/>
     <use x="544.947266" xlink:href="#DejaVuSans-37"/>
    </g>
   </g>
   <g id="patch_24">
    <path d="M 509.281969 400.050261 
C 512.380957 391.535862 514.11818 382.585841 514.429552 373.530357 
C 514.740925 364.474874 513.62257 355.426664 511.115745 346.719509 
C 508.608919 338.012353 504.74483 329.754651 499.666022 322.251023 
C 494.587213 314.747395 488.356913 308.091256 481.204953 302.528147 
C 474.052992 296.965037 466.068408 292.564214 457.545746 289.488021 
C 449.023084 286.411827 440.068447 284.69856 431.012163 284.41142 
C 421.955879 284.12428 412.910694 285.266842 404.210277 287.796958 
C 395.509861 290.327074 387.262529 294.213246 379.772518 299.312115 
C 372.282507 304.410984 365.643063 310.659072 360.099111 317.825894 
C 354.555159 324.992715 350.175718 332.989046 347.122341 341.519909 
C 344.068964 350.050772 342.379664 359.009962 342.116759 368.066982 
C 341.853854 377.124002 343.020615 386.166097 345.574004 394.859712 
C 348.127392 403.553327 352.035618 411.790231 357.154511 419.266571 
C 362.273404 426.742911 368.539237 433.365612 375.720867 438.890366 
C 382.902498 444.415121 390.910519 448.773149 399.449522 451.803688 
C 407.988525 454.834227 416.952203 456.499547 426.009894 456.738216 
L 428.280465 370.568125 
L 509.281969 400.050261 
z
" style="fill:#1f77b4;"/>
   </g>
   <g id="patch_25">
    <path d="M 426.009894 456.738216 
C 444.07846 457.21432 461.847108 451.995518 476.788416 441.824133 
C 491.729725 431.652749 503.100015 417.035046 509.281972 400.050254 
L 428.280465 370.568125 
L 426.009894 456.738216 
z
" style="fill:#ff7f0e;"/>
   </g>
   <g id="matplotlib.axis_7"/>
   <g id="matplotlib.axis_8"/>
   <g id="text_12">
    <!-- feature_4 -->
    <g transform="translate(399.670778 256.818125)scale(0.12 -0.12)">
     <use xlink:href="#DejaVuSans-102"/>
     <use x="35.205078" xlink:href="#DejaVuSans-101"/>
     <use x="96.728516" xlink:href="#DejaVuSans-97"/>
     <use x="158.007812" xlink:href="#DejaVuSans-116"/>
     <use x="197.216797" xlink:href="#DejaVuSans-117"/>
     <use x="260.595703" xlink:href="#DejaVuSans-114"/>
     <use x="301.677734" xlink:href="#DejaVuSans-101"/>
     <use x="363.201172" xlink:href="#DejaVuSans-95"/>
     <use x="413.201172" xlink:href="#DejaVuSans-52"/>
    </g>
   </g>
  </g>
  <g id="axes_5">
   <g id="patch_26">
    <path d="M 212.5014 528.756767 
Q 206.179243 531.190851 200.90046 533.223227 
" style="fill:none;stroke:#000000;stroke-linecap:round;"/>
    <path d="M 205.351948 533.652478 
L 200.90046 533.223227 
L 203.914754 529.919587 
L 205.351948 533.652478 
z
" style="fill:#1f77b4;stroke:#000000;stroke-linecap:round;"/>
   </g>
   <g id="text_13">
    <g id="patch_27">
     <path d="M 201.848299 527.837962 
L 273.843612 527.837962 
L 273.843612 510.159837 
L 201.848299 510.159837 
z
" style="fill:#ffffff;stroke:#000000;stroke-linejoin:miter;stroke-width:0.4;"/>
    </g>
    <!-- True 46.05% -->
    <g transform="translate(205.848299 521.758275)scale(0.1 -0.1)">
     <use xlink:href="#DejaVuSans-84"/>
     <use x="60.865234" xlink:href="#DejaVuSans-114"/>
     <use x="101.978516" xlink:href="#DejaVuSans-117"/>
     <use x="165.357422" xlink:href="#DejaVuSans-101"/>
     <use x="226.880859" xlink:href="#DejaVuSans-32"/>
     <use x="258.667969" xlink:href="#DejaVuSans-52"/>
     <use x="322.291016" xlink:href="#DejaVuSans-54"/>
     <use x="385.914062" xlink:href="#DejaVuSans-46"/>
     <use x="417.701172" xlink:href="#DejaVuSans-48"/>
     <use x="481.324219" xlink:href="#DejaVuSans-53"/>
     <use x="544.947266" xlink:href="#DejaVuSans-37"/>
    </g>
   </g>
   <g id="patch_28">
    <path d="M 104.225044 693.404115 
Q 110.87652 690.9456 116.479306 688.874701 
" style="fill:none;stroke:#000000;stroke-linecap:round;"/>
    <path d="M 112.034004 688.385525 
L 116.479306 688.874701 
L 113.420784 692.137436 
L 112.034004 688.385525 
z
" style="fill:#1f77b4;stroke:#000000;stroke-linecap:round;"/>
   </g>
   <g id="text_14">
    <g id="patch_29">
     <path d="M 40.234897 711.976413 
L 115.54896 711.976413 
L 115.54896 694.298288 
L 40.234897 694.298288 
z
" style="fill:#ffffff;stroke:#000000;stroke-linejoin:miter;stroke-width:0.4;"/>
    </g>
    <!-- False 53.95% -->
    <g transform="translate(44.234897 705.896725)scale(0.1 -0.1)">
     <use xlink:href="#DejaVuSans-70"/>
     <use x="57.378906" xlink:href="#DejaVuSans-97"/>
     <use x="118.658203" xlink:href="#DejaVuSans-108"/>
     <use x="146.441406" xlink:href="#DejaVuSans-115"/>
     <use x="198.541016" xlink:href="#DejaVuSans-101"/>
     <use x="260.064453" xlink:href="#DejaVuSans-32"/>
     <use x="291.851562" xlink:href="#DejaVuSans-53"/>
     <use x="355.474609" xlink:href="#DejaVuSans-51"/>
     <use x="419.097656" xlink:href="#DejaVuSans-46"/>
     <use x="450.884766" xlink:href="#DejaVuSans-57"/>
     <use x="514.507812" xlink:href="#DejaVuSans-53"/>
     <use x="578.130859" xlink:href="#DejaVuSans-37"/>
    </g>
   </g>
   <g id="patch_30">
    <path d="M 239.700133 640.550261 
C 246.884665 620.810923 246.611716 599.110354 238.932973 579.557965 
C 231.25423 560.005577 216.687057 543.91873 197.990021 534.343771 
C 179.292985 524.768812 157.725817 522.350863 137.372667 527.547808 
C 117.019516 532.744754 99.251695 545.206444 87.433875 562.573025 
L 158.69863 611.068125 
L 239.700133 640.550261 
z
" style="fill:#1f77b4;"/>
   </g>
   <g id="patch_31">
    <path d="M 87.433875 562.573025 
C 80.558339 572.676796 75.909502 584.128201 73.796628 596.165433 
C 71.683755 608.202666 72.154761 620.552747 75.178313 632.394088 
C 78.201864 644.235428 83.709393 655.29949 91.334512 664.850238 
C 98.95963 674.400985 108.529416 682.221826 119.407238 687.792479 
C 130.285061 693.363133 142.224234 696.557268 154.430504 697.162394 
C 166.636774 697.76752 178.833328 695.769914 190.208789 691.302468 
C 201.584251 686.835022 211.880649 679.999047 220.413014 671.249308 
C 228.945379 662.499568 235.520216 652.034489 239.700133 640.550261 
L 158.69863 611.068125 
L 87.433875 562.573025 
z
" style="fill:#ff7f0e;"/>
   </g>
   <g id="matplotlib.axis_9"/>
   <g id="matplotlib.axis_10"/>
   <g id="text_15">
    <!-- feature_5 -->
    <g transform="translate(130.088942 497.318125)scale(0.12 -0.12)">
     <use xlink:href="#DejaVuSans-102"/>
     <use x="35.205078" xlink:href="#DejaVuSans-101"/>
     <use x="96.728516" xlink:href="#DejaVuSans-97"/>
     <use x="158.007812" xlink:href="#DejaVuSans-116"/>
     <use x="197.216797" xlink:href="#DejaVuSans-117"/>
     <use x="260.595703" xlink:href="#DejaVuSans-114"/>
     <use x="301.677734" xlink:href="#DejaVuSans-101"/>
     <use x="363.201172" xlink:href="#DejaVuSans-95"/>
     <use x="413.201172" xlink:href="#DejaVuSans-53"/>
    </g>
   </g>
  </g>
  <g id="axes_6">
   <g id="patch_32">
    <path d="M 517.002957 575.384094 
Q 513.173424 575.93354 510.450591 576.324201 
" style="fill:none;stroke:#000000;stroke-linecap:round;"/>
    <path d="M 514.694089 577.735841 
L 510.450591 576.324201 
L 514.126002 573.776387 
L 514.694089 577.735841 
z
" style="fill:#1f77b4;stroke:#000000;stroke-linecap:round;"/>
   </g>
   <g id="text_16">
    <g id="patch_33">
     <path d="M 519.178357 578.746238 
L 591.173669 578.746238 
L 591.173669 561.068113 
L 519.178357 561.068113 
z
" style="fill:#ffffff;stroke:#000000;stroke-linejoin:miter;stroke-width:0.4;"/>
    </g>
    <!-- True 24.14% -->
    <g transform="translate(523.178357 572.666551)scale(0.1 -0.1)">
     <use xlink:href="#DejaVuSans-84"/>
     <use x="60.865234" xlink:href="#DejaVuSans-114"/>
     <use x="101.978516" xlink:href="#DejaVuSans-117"/>
     <use x="165.357422" xlink:href="#DejaVuSans-101"/>
     <use x="226.880859" xlink:href="#DejaVuSans-32"/>
     <use x="258.667969" xlink:href="#DejaVuSans-50"/>
     <use x="322.291016" xlink:href="#DejaVuSans-52"/>
     <use x="385.914062" xlink:href="#DejaVuSans-46"/>
     <use x="417.701172" xlink:href="#DejaVuSans-49"/>
     <use x="481.324219" xlink:href="#DejaVuSans-52"/>
     <use x="544.947266" xlink:href="#DejaVuSans-37"/>
    </g>
   </g>
   <g id="patch_34">
    <path d="M 339.564832 646.704806 
Q 343.391641 646.174167 346.111011 645.797089 
" style="fill:none;stroke:#000000;stroke-linecap:round;"/>
    <path d="M 341.874222 644.365442 
L 346.111011 645.797089 
L 342.42362 648.327532 
L 341.874222 644.365442 
z
" style="fill:#1f77b4;stroke:#000000;stroke-linecap:round;"/>
   </g>
   <g id="text_17">
    <g id="patch_35">
     <path d="M 262.068509 661.068132 
L 337.382572 661.068132 
L 337.382572 643.390007 
L 262.068509 643.390007 
z
" style="fill:#ffffff;stroke:#000000;stroke-linejoin:miter;stroke-width:0.4;"/>
    </g>
    <!-- False 75.86% -->
    <g transform="translate(266.068509 654.988445)scale(0.1 -0.1)">
     <use xlink:href="#DejaVuSans-70"/>
     <use x="57.378906" xlink:href="#DejaVuSans-97"/>
     <use x="118.658203" xlink:href="#DejaVuSans-108"/>
     <use x="146.441406" xlink:href="#DejaVuSans-115"/>
     <use x="198.541016" xlink:href="#DejaVuSans-101"/>
     <use x="260.064453" xlink:href="#DejaVuSans-32"/>
     <use x="291.851562" xlink:href="#DejaVuSans-55"/>
     <use x="355.474609" xlink:href="#DejaVuSans-53"/>
     <use x="419.097656" xlink:href="#DejaVuSans-46"/>
     <use x="450.884766" xlink:href="#DejaVuSans-56"/>
     <use x="514.507812" xlink:href="#DejaVuSans-54"/>
     <use x="578.130859" xlink:href="#DejaVuSans-37"/>
    </g>
   </g>
   <g id="patch_36">
    <path d="M 509.281969 640.550261 
C 516.822294 619.833388 516.134782 596.993168 507.362042 576.767334 
C 498.589301 556.541499 482.382964 540.432405 462.104699 531.781548 
L 428.280465 611.068125 
L 509.281969 640.550261 
z
" style="fill:#1f77b4;"/>
   </g>
   <g id="patch_37">
    <path d="M 462.104699 531.781548 
C 454.216758 528.416495 445.870627 526.247317 437.342414 525.345776 
C 428.814201 524.444235 420.198997 524.820383 411.781811 526.461775 
C 403.364624 528.103168 395.23931 530.991504 387.674668 535.031231 
C 380.110026 539.070958 373.190406 544.217032 367.144722 550.299211 
C 361.099038 556.38139 355.994701 563.331855 352.000573 570.920672 
C 348.006445 578.509489 345.167061 586.652039 343.576355 595.078951 
C 341.985649 603.505864 341.661356 612.123175 342.614206 620.645808 
C 343.567056 629.168441 345.786423 637.501366 349.198887 645.368912 
C 352.611351 653.236459 357.178862 660.550902 362.750317 667.070264 
C 368.321771 673.589627 374.835047 679.241217 382.074671 683.838068 
C 389.314295 688.434919 397.199544 691.925775 405.469558 694.195151 
C 413.739571 696.464528 422.302137 697.487121 430.873988 697.2291 
C 439.445838 696.97108 447.931395 695.435323 456.049939 692.672637 
C 464.168483 689.90995 471.829491 685.951138 478.779519 680.927165 
C 485.729548 675.903193 491.891104 669.87008 497.060349 663.027412 
C 502.229595 656.184745 506.348892 648.608822 509.281966 640.550269 
L 428.280465 611.068125 
L 462.104699 531.781548 
z
" style="fill:#ff7f0e;"/>
   </g>
   <g id="matplotlib.axis_11"/>
   <g id="matplotlib.axis_12"/>
   <g id="text_18">
    <!-- feature_6 -->
    <g transform="translate(399.670778 497.318125)scale(0.12 -0.12)">
     <use xlink:href="#DejaVuSans-102"/>
     <use x="35.205078" xlink:href="#DejaVuSans-101"/>
     <use x="96.728516" xlink:href="#DejaVuSans-97"/>
     <use x="158.007812" xlink:href="#DejaVuSans-116"/>
     <use x="197.216797" xlink:href="#DejaVuSans-117"/>
     <use x="260.595703" xlink:href="#DejaVuSans-114"/>
     <use x="301.677734" xlink:href="#DejaVuSans-101"/>
     <use x="363.201172" xlink:href="#DejaVuSans-95"/>
     <use x="413.201172" xlink:href="#DejaVuSans-54"/>
    </g>
   </g>
  </g>
  <g id="axes_7">
   <g id="patch_38">
    <path d="M 77.353343 803.935577 
Q 80.585037 804.573424 82.719858 804.994778 
" style="fill:none;stroke:#000000;stroke-linecap:round;"/>
    <path d="M 79.182838 802.258085 
L 82.719858 804.994778 
L 78.408292 806.182378 
L 79.182838 802.258085 
z
" style="fill:#1f77b4;stroke:#000000;stroke-linecap:round;"/>
   </g>
   <g id="text_19">
    <g id="patch_39">
     <path d="M 3.2 805.243766 
L 75.195312 805.243766 
L 75.195312 787.565641 
L 3.2 787.565641 
z
" style="fill:#ffffff;stroke:#000000;stroke-linejoin:miter;stroke-width:0.4;"/>
    </g>
    <!-- True 93.21% -->
    <g transform="translate(7.2 799.164078)scale(0.1 -0.1)">
     <use xlink:href="#DejaVuSans-84"/>
     <use x="60.865234" xlink:href="#DejaVuSans-114"/>
     <use x="101.978516" xlink:href="#DejaVuSans-117"/>
     <use x="165.357422" xlink:href="#DejaVuSans-101"/>
     <use x="226.880859" xlink:href="#DejaVuSans-32"/>
     <use x="258.667969" xlink:href="#DejaVuSans-57"/>
     <use x="322.291016" xlink:href="#DejaVuSans-51"/>
     <use x="385.914062" xlink:href="#DejaVuSans-46"/>
     <use x="417.701172" xlink:href="#DejaVuSans-50"/>
     <use x="481.324219" xlink:href="#DejaVuSans-49"/>
     <use x="544.947266" xlink:href="#DejaVuSans-37"/>
    </g>
   </g>
   <g id="patch_40">
    <path d="M 240.040841 899.25621 
Q 236.810327 898.597061 234.675277 898.161429 
" style="fill:none;stroke:#000000;stroke-linecap:round;"/>
    <path d="M 238.194688 900.920731 
L 234.675277 898.161429 
L 238.994365 897.001482 
L 238.194688 900.920731 
z
" style="fill:#1f77b4;stroke:#000000;stroke-linecap:round;"/>
   </g>
   <g id="text_20">
    <g id="patch_41">
     <path d="M 242.201949 915.570605 
L 311.153512 915.570605 
L 311.153512 897.89248 
L 242.201949 897.89248 
z
" style="fill:#ffffff;stroke:#000000;stroke-linejoin:miter;stroke-width:0.4;"/>
    </g>
    <!-- False 6.79% -->
    <g transform="translate(246.201949 909.490918)scale(0.1 -0.1)">
     <use xlink:href="#DejaVuSans-70"/>
     <use x="57.378906" xlink:href="#DejaVuSans-97"/>
     <use x="118.658203" xlink:href="#DejaVuSans-108"/>
     <use x="146.441406" xlink:href="#DejaVuSans-115"/>
     <use x="198.541016" xlink:href="#DejaVuSans-101"/>
     <use x="260.064453" xlink:href="#DejaVuSans-32"/>
     <use x="291.851562" xlink:href="#DejaVuSans-54"/>
     <use x="355.474609" xlink:href="#DejaVuSans-46"/>
     <use x="387.261719" xlink:href="#DejaVuSans-55"/>
     <use x="450.884766" xlink:href="#DejaVuSans-57"/>
     <use x="514.507812" xlink:href="#DejaVuSans-37"/>
    </g>
   </g>
   <g id="patch_42">
    <path d="M 239.700133 881.050261 
C 243.307178 871.139987 245.065052 860.651368 244.886238 850.10659 
C 244.707424 839.561813 242.594939 829.138825 238.653956 819.356548 
C 234.712973 809.57427 229.009997 800.597782 221.828958 792.873989 
C 214.647919 785.150196 206.109999 778.809439 196.640269 774.167402 
C 187.170539 769.525364 176.928804 766.660381 166.424961 765.715089 
C 155.921117 764.769797 145.332422 765.760149 135.186045 768.636838 
C 125.039668 771.513527 115.506834 776.228009 107.062145 782.545567 
C 98.617457 788.863125 91.403422 796.677148 85.779199 805.598607 
C 80.154976 814.520065 76.215476 824.398405 74.156832 834.741823 
C 72.098188 845.085241 71.95514 855.719186 73.73481 866.114237 
C 75.51448 876.509288 79.186836 886.490023 84.569044 895.55954 
C 89.951253 904.629057 96.952487 912.634304 105.224183 919.176731 
C 113.495879 925.719158 122.898448 930.688358 132.963773 933.836935 
C 143.029098 936.985513 153.587322 938.260333 164.112792 937.597927 
C 174.638263 936.935522 184.953357 934.347069 194.544528 929.961438 
C 204.135698 925.575808 212.841089 919.467008 220.227293 911.939174 
L 158.69863 851.568125 
L 239.700133 881.050261 
z
" style="fill:#1f77b4;"/>
   </g>
   <g id="patch_43">
    <path d="M 220.227293 911.939174 
C 224.526123 907.557914 228.34472 902.73 231.618063 897.53764 
C 234.891405 892.34528 237.600808 886.818113 239.700136 881.050254 
L 158.69863 851.568125 
L 220.227293 911.939174 
z
" style="fill:#ff7f0e;"/>
   </g>
   <g id="matplotlib.axis_13"/>
   <g id="matplotlib.axis_14"/>
   <g id="text_21">
    <!-- feature_7 -->
    <g transform="translate(130.088942 737.818125)scale(0.12 -0.12)">
     <use xlink:href="#DejaVuSans-102"/>
     <use x="35.205078" xlink:href="#DejaVuSans-101"/>
     <use x="96.728516" xlink:href="#DejaVuSans-97"/>
     <use x="158.007812" xlink:href="#DejaVuSans-116"/>
     <use x="197.216797" xlink:href="#DejaVuSans-117"/>
     <use x="260.595703" xlink:href="#DejaVuSans-114"/>
     <use x="301.677734" xlink:href="#DejaVuSans-101"/>
     <use x="363.201172" xlink:href="#DejaVuSans-95"/>
     <use x="413.201172" xlink:href="#DejaVuSans-55"/>
    </g>
   </g>
  </g>
  <g id="axes_8">
   <g id="patch_44">
    <path d="M 483.077796 769.44274 
Q 476.436939 771.887499 470.845277 773.946008 
" style="fill:none;stroke:#000000;stroke-linecap:round;"/>
    <path d="M 475.289938 774.440976 
L 470.845277 773.946008 
L 473.908048 770.687261 
L 475.289938 774.440976 
z
" style="fill:#1f77b4;stroke:#000000;stroke-linecap:round;"/>
   </g>
   <g id="text_22">
    <g id="patch_45">
     <path d="M 471.847716 768.553008 
L 547.161778 768.553008 
L 547.161778 750.874883 
L 471.847716 750.874883 
z
" style="fill:#ffffff;stroke:#000000;stroke-linejoin:miter;stroke-width:0.4;"/>
    </g>
    <!-- False 45.90% -->
    <g transform="translate(475.847716 762.473321)scale(0.1 -0.1)">
     <use xlink:href="#DejaVuSans-70"/>
     <use x="57.378906" xlink:href="#DejaVuSans-97"/>
     <use x="118.658203" xlink:href="#DejaVuSans-108"/>
     <use x="146.441406" xlink:href="#DejaVuSans-115"/>
     <use x="198.541016" xlink:href="#DejaVuSans-101"/>
     <use x="260.064453" xlink:href="#DejaVuSans-32"/>
     <use x="291.851562" xlink:href="#DejaVuSans-52"/>
     <use x="355.474609" xlink:href="#DejaVuSans-53"/>
     <use x="419.097656" xlink:href="#DejaVuSans-46"/>
     <use x="450.884766" xlink:href="#DejaVuSans-57"/>
     <use x="514.507812" xlink:href="#DejaVuSans-48"/>
     <use x="578.130859" xlink:href="#DejaVuSans-37"/>
    </g>
   </g>
   <g id="patch_46">
    <path d="M 374.151877 933.66902 
Q 380.46438 931.248556 385.732961 929.228373 
" style="fill:none;stroke:#000000;stroke-linecap:round;"/>
    <path d="M 381.282064 928.793037 
L 385.732961 929.228373 
L 382.714154 932.527889 
L 381.282064 928.793037 
z
" style="fill:#1f77b4;stroke:#000000;stroke-linecap:round;"/>
   </g>
   <g id="text_23">
    <g id="patch_47">
     <path d="M 312.717911 952.261371 
L 384.713223 952.261371 
L 384.713223 934.583246 
L 312.717911 934.583246 
z
" style="fill:#ffffff;stroke:#000000;stroke-linejoin:miter;stroke-width:0.4;"/>
    </g>
    <!-- True 54.10% -->
    <g transform="translate(316.717911 946.181684)scale(0.1 -0.1)">
     <use xlink:href="#DejaVuSans-84"/>
     <use x="60.865234" xlink:href="#DejaVuSans-114"/>
     <use x="101.978516" xlink:href="#DejaVuSans-117"/>
     <use x="165.357422" xlink:href="#DejaVuSans-101"/>
     <use x="226.880859" xlink:href="#DejaVuSans-32"/>
     <use x="258.667969" xlink:href="#DejaVuSans-53"/>
     <use x="322.291016" xlink:href="#DejaVuSans-52"/>
     <use x="385.914062" xlink:href="#DejaVuSans-46"/>
     <use x="417.701172" xlink:href="#DejaVuSans-49"/>
     <use x="481.324219" xlink:href="#DejaVuSans-48"/>
     <use x="544.947266" xlink:href="#DejaVuSans-37"/>
    </g>
   </g>
   <g id="patch_48">
    <path d="M 509.281969 881.050261 
C 516.443477 861.374181 516.196008 839.747267 508.586142 820.240211 
C 500.976277 800.733154 486.513427 784.651778 467.919841 775.022975 
C 449.326254 765.394172 427.846605 762.862505 407.523867 767.904491 
C 387.201129 772.946478 369.395728 785.224602 357.459057 802.427835 
L 428.280465 851.568125 
L 509.281969 881.050261 
z
" style="fill:#1f77b4;"/>
   </g>
   <g id="patch_49">
    <path d="M 357.459057 802.427835 
C 350.473244 812.495848 345.713984 823.938744 343.499566 835.991247 
C 341.285148 848.043751 341.666061 860.431055 344.616832 872.324727 
C 347.567603 884.218399 353.020952 895.347254 360.61217 904.967019 
C 368.203389 914.586784 377.759392 922.478122 388.641097 928.113278 
C 399.522802 933.748435 411.482097 936.998923 423.719172 937.647359 
C 435.956248 938.295796 448.192088 936.327394 459.608391 931.873798 
C 471.024693 927.420201 481.361156 920.582955 489.926502 911.819317 
C 498.491848 903.05568 505.090779 892.565469 509.281975 881.050246 
L 428.280465 851.568125 
L 357.459057 802.427835 
z
" style="fill:#ff7f0e;"/>
   </g>
   <g id="matplotlib.axis_15"/>
   <g id="matplotlib.axis_16"/>
   <g id="text_24">
    <!-- feature_8 -->
    <g transform="translate(399.670778 737.818125)scale(0.12 -0.12)">
     <use xlink:href="#DejaVuSans-102"/>
     <use x="35.205078" xlink:href="#DejaVuSans-101"/>
     <use x="96.728516" xlink:href="#DejaVuSans-97"/>
     <use x="158.007812" xlink:href="#DejaVuSans-116"/>
     <use x="197.216797" xlink:href="#DejaVuSans-117"/>
     <use x="260.595703" xlink:href="#DejaVuSans-114"/>
     <use x="301.677734" xlink:href="#DejaVuSans-101"/>
     <use x="363.201172" xlink:href="#DejaVuSans-95"/>
     <use x="413.201172" xlink:href="#DejaVuSans-56"/>
    </g>
   </g>
  </g>
 </g>
</svg>
